# This file uses centimeters as units for non-parametric coordinates.

mtllib Coral_Branch_2.mtl
g default
v 3.682802 0.010560 -1.615074
v 6.849630 0.010560 1.551755
v 3.682802 4.489132 -1.615074
v 6.849630 4.489132 1.551755
v 3.634237 0.010560 -1.566509
v 6.801065 0.010560 1.600320
v 6.801065 4.489132 1.600320
v 3.634237 4.489132 -1.566509
v 3.125296 0.010560 -0.037062
v 7.603868 0.010560 -0.037062
v 3.125296 4.489132 -0.037062
v 7.603868 4.489132 -0.037062
v 3.125295 0.010560 0.031619
v 7.603868 0.010560 0.031619
v 7.603868 4.489132 0.031619
v 3.125295 4.489132 0.031619
v 3.657531 0.010560 1.569000
v 6.824360 0.010560 -1.597828
v 3.657531 4.489132 1.569000
v 6.824360 4.489132 -1.597828
v 3.706096 0.010560 1.617565
v 6.872925 0.010560 -1.549263
v 6.872925 4.489132 -1.549263
v 3.706096 4.489132 1.617565
vt 0.000000 0.000000
vt 1.000000 0.000000
vt 1.000000 1.000000
vt 0.000000 1.000000
vt 0.000000 0.000000
vt 1.000000 0.000000
vt 1.000000 1.000000
vt 0.000000 1.000000
vt 0.000000 0.000000
vt 1.000000 0.000000
vt 1.000000 1.000000
vt 0.000000 1.000000
vt 0.000000 0.000000
vt 1.000000 0.000000
vt 1.000000 1.000000
vt 0.000000 1.000000
vt 0.000000 0.000000
vt 0.000000 1.000000
vt 1.000000 1.000000
vt 1.000000 0.000000
vt 0.000000 0.000000
vt 1.000000 0.000000
vt 1.000000 1.000000
vt 0.000000 1.000000
vt 0.000000 0.000000
vt 1.000000 0.000000
vt 1.000000 1.000000
vt 0.000000 1.000000
vt 0.000000 0.000000
vt 0.000000 1.000000
vt 1.000000 1.000000
vt 1.000000 0.000000
vt 0.000000 0.000000
vt 1.000000 0.000000
vt 1.000000 1.000000
vt 0.000000 1.000000
vn -0.707107 0.000000 0.707107
vn -0.707107 0.000000 0.707107
vn -0.707107 0.000000 0.707107
vn -0.707107 0.000000 0.707107
vn 0.707107 0.000000 -0.707107
vn 0.707107 0.000000 -0.707107
vn 0.707107 0.000000 -0.707107
vn 0.707107 0.000000 -0.707107
vn -0.000000 -1.000000 -0.000000
vn -0.000000 -1.000000 -0.000000
vn -0.000000 -1.000000 -0.000000
vn -0.000000 -1.000000 -0.000000
vn 0.707109 0.000000 0.707105
vn 0.707109 0.000000 0.707105
vn 0.707109 0.000000 0.707105
vn 0.707109 0.000000 0.707105
vn 0.000000 1.000000 0.000001
vn 0.000000 1.000000 0.000001
vn 0.000000 1.000000 0.000001
vn 0.000000 1.000000 0.000001
vn -0.707105 0.000000 -0.707108
vn -0.707105 0.000000 -0.707108
vn -0.707105 0.000000 -0.707108
vn -0.707105 0.000000 -0.707108
vn 0.000000 0.000000 1.000000
vn 0.000000 0.000000 1.000000
vn 0.000000 0.000000 1.000000
vn 0.000000 0.000000 1.000000
vn 0.000000 0.000000 -1.000000
vn 0.000000 0.000000 -1.000000
vn 0.000000 0.000000 -1.000000
vn 0.000000 0.000000 -1.000000
vn -0.000000 -1.000000 0.000000
vn -0.000000 -1.000000 0.000000
vn -0.000000 -1.000000 0.000000
vn -0.000000 -1.000000 0.000000
vn 1.000000 0.000000 -0.000007
vn 1.000000 0.000000 -0.000007
vn 1.000000 0.000000 -0.000007
vn 1.000000 0.000000 -0.000007
vn 0.000000 1.000000 0.000001
vn 0.000000 1.000000 0.000001
vn 0.000000 1.000000 0.000001
vn 0.000000 1.000000 0.000001
vn -1.000000 0.000000 -0.000003
vn -1.000000 0.000000 -0.000003
vn -1.000000 0.000000 -0.000003
vn -1.000000 0.000000 -0.000003
vn 0.707107 0.000000 0.707107
vn 0.707107 0.000000 0.707107
vn 0.707107 0.000000 0.707107
vn 0.707107 0.000000 0.707107
vn -0.707107 0.000000 -0.707107
vn -0.707107 0.000000 -0.707107
vn -0.707107 0.000000 -0.707107
vn -0.707107 0.000000 -0.707107
vn -0.000000 -1.000000 0.000000
vn -0.000000 -1.000000 0.000000
vn -0.000000 -1.000000 0.000000
vn -0.000000 -1.000000 0.000000
vn 0.707103 0.000000 -0.707111
vn 0.707103 0.000000 -0.707111
vn 0.707103 0.000000 -0.707111
vn 0.707103 0.000000 -0.707111
vn 0.000000 1.000000 -0.000001
vn 0.000000 1.000000 -0.000001
vn 0.000000 1.000000 -0.000001
vn 0.000000 1.000000 -0.000001
vn -0.707109 0.000000 0.707105
vn -0.707109 0.000000 0.707105
vn -0.707109 0.000000 0.707105
vn -0.707109 0.000000 0.707105
s off
g polySurface1
usemtl lambert15SG
f 5/9/1 6/10/2 7/11/3 8/12/4
f 1/5/5 3/8/6 4/7/7 2/6/8
f 1/1/9 2/2/10 6/10/11 5/9/12
f 2/2/13 4/3/14 7/11/15 6/10/16
f 4/3/17 3/4/18 8/12/19 7/11/20
f 3/4/21 1/1/22 5/9/23 8/12/24
f 13/13/25 14/14/26 15/15/27 16/16/28
f 9/17/29 11/18/30 12/19/31 10/20/32
f 9/21/33 10/22/34 14/14/35 13/13/36
f 10/22/37 12/23/38 15/15/39 14/14/40
f 12/23/41 11/24/42 16/16/43 15/15/44
f 11/24/45 9/21/46 13/13/47 16/16/48
f 21/25/49 22/26/50 23/27/51 24/28/52
f 17/29/53 19/30/54 20/31/55 18/32/56
f 17/33/57 18/34/58 22/26/59 21/25/60
f 18/34/61 20/35/62 23/27/63 22/26/64
f 20/35/65 19/36/66 24/28/67 23/27/68
f 19/36/69 17/33/70 21/25/71 24/28/72
