# This file uses centimeters as units for non-parametric coordinates.

mtllib Algae_1.mtl
g default
v 6.357377 0.010560 -9.650859
v 9.524205 0.010560 -6.484029
v 6.357377 4.489132 -9.650859
v 9.524205 4.489132 -6.484029
v 6.308811 0.010560 -9.602293
v 9.475639 0.010560 -6.435463
v 9.475639 4.489132 -6.435463
v 6.308811 4.489132 -9.602293
v 6.332107 0.010560 -6.466784
v 9.498936 0.010560 -9.633613
v 6.332107 4.489132 -6.466784
v 9.498936 4.489132 -9.633613
v 6.380672 0.010560 -6.418219
v 9.547502 0.010560 -9.585047
v 9.547502 4.489132 -9.585047
v 6.380672 4.489132 -6.418219
v 5.679373 0.010560 -8.149374
v 10.157946 0.010560 -8.149373
v 5.679373 4.489132 -8.149374
v 10.157946 4.489132 -8.149373
v 5.679373 0.010560 -8.080690
v 10.157946 0.010560 -8.080690
v 10.157946 4.489132 -8.080690
v 5.679373 4.489132 -8.080690
vt 0.000000 0.000000
vt 1.000000 0.000000
vt 1.000000 1.000000
vt 0.000000 1.000000
vt 0.000000 0.000000
vt 1.000000 0.000000
vt 1.000000 1.000000
vt 0.000000 1.000000
vt 0.000000 0.000000
vt 1.000000 0.000000
vt 1.000000 1.000000
vt 0.000000 1.000000
vt 0.000000 0.000000
vt 1.000000 0.000000
vt 1.000000 1.000000
vt 0.000000 1.000000
vt 0.000000 0.000000
vt 0.000000 1.000000
vt 1.000000 1.000000
vt 1.000000 0.000000
vt 0.000000 0.000000
vt 1.000000 0.000000
vt 1.000000 1.000000
vt 0.000000 1.000000
vt 0.000000 0.000000
vt 1.000000 0.000000
vt 1.000000 1.000000
vt 0.000000 1.000000
vt 0.000000 0.000000
vt 0.000000 1.000000
vt 1.000000 1.000000
vt 1.000000 0.000000
vt 0.000000 0.000000
vt 1.000000 0.000000
vt 1.000000 1.000000
vt 0.000000 1.000000
vn -0.707107 0.000000 0.707107
vn -0.707107 0.000000 0.707107
vn -0.707107 0.000000 0.707107
vn -0.707107 0.000000 0.707107
vn 0.707107 0.000000 -0.707107
vn 0.707107 0.000000 -0.707107
vn 0.707107 0.000000 -0.707107
vn 0.707107 0.000000 -0.707107
vn -0.000000 -1.000000 -0.000000
vn -0.000000 -1.000000 -0.000000
vn -0.000000 -1.000000 -0.000000
vn -0.000000 -1.000000 -0.000000
vn 0.707108 0.000000 0.707106
vn 0.707108 0.000000 0.707106
vn 0.707108 0.000000 0.707106
vn 0.707108 0.000000 0.707106
vn 0.000000 1.000000 -0.000000
vn 0.000000 1.000000 -0.000000
vn 0.000000 1.000000 -0.000000
vn 0.000000 1.000000 -0.000000
vn -0.707108 0.000000 -0.707106
vn -0.707108 0.000000 -0.707106
vn -0.707108 0.000000 -0.707106
vn -0.707108 0.000000 -0.707106
vn 0.707107 0.000000 0.707107
vn 0.707107 0.000000 0.707107
vn 0.707107 0.000000 0.707107
vn 0.707107 0.000000 0.707107
vn -0.707107 0.000000 -0.707107
vn -0.707107 0.000000 -0.707107
vn -0.707107 0.000000 -0.707107
vn -0.707107 0.000000 -0.707107
vn -0.000000 -1.000000 0.000000
vn -0.000000 -1.000000 0.000000
vn -0.000000 -1.000000 0.000000
vn -0.000000 -1.000000 0.000000
vn 0.707102 0.000000 -0.707112
vn 0.707102 0.000000 -0.707112
vn 0.707102 0.000000 -0.707112
vn 0.707102 0.000000 -0.707112
vn 0.000000 1.000000 0.000000
vn 0.000000 1.000000 0.000000
vn 0.000000 1.000000 0.000000
vn 0.000000 1.000000 0.000000
vn -0.707108 0.000000 0.707106
vn -0.707108 0.000000 0.707106
vn -0.707108 0.000000 0.707106
vn -0.707108 0.000000 0.707106
vn 0.000000 0.000000 1.000000
vn 0.000000 0.000000 1.000000
vn 0.000000 0.000000 1.000000
vn 0.000000 0.000000 1.000000
vn 0.000000 0.000000 -1.000000
vn 0.000000 0.000000 -1.000000
vn 0.000000 0.000000 -1.000000
vn 0.000000 0.000000 -1.000000
vn -0.000000 -1.000000 0.000000
vn -0.000000 -1.000000 0.000000
vn -0.000000 -1.000000 0.000000
vn -0.000000 -1.000000 0.000000
vn 1.000000 0.000000 0.000000
vn 1.000000 0.000000 0.000000
vn 1.000000 0.000000 0.000000
vn 1.000000 0.000000 0.000000
vn 0.000000 1.000000 0.000000
vn 0.000000 1.000000 0.000000
vn 0.000000 1.000000 0.000000
vn 0.000000 1.000000 0.000000
vn -1.000000 0.000000 0.000000
vn -1.000000 0.000000 0.000000
vn -1.000000 0.000000 0.000000
vn -1.000000 0.000000 0.000000
s off
g polySurface4
usemtl lambert19SG
f 5/9/1 6/10/2 7/11/3 8/12/4
f 1/5/5 3/8/6 4/7/7 2/6/8
f 1/1/9 2/2/10 6/10/11 5/9/12
f 2/2/13 4/3/14 7/11/15 6/10/16
f 4/3/17 3/4/18 8/12/19 7/11/20
f 3/4/21 1/1/22 5/9/23 8/12/24
f 13/13/25 14/14/26 15/15/27 16/16/28
f 9/17/29 11/18/30 12/19/31 10/20/32
f 9/21/33 10/22/34 14/14/35 13/13/36
f 10/22/37 12/23/38 15/15/39 14/14/40
f 12/23/41 11/24/42 16/16/43 15/15/44
f 11/24/45 9/21/46 13/13/47 16/16/48
f 21/25/49 22/26/50 23/27/51 24/28/52
f 17/29/53 19/30/54 20/31/55 18/32/56
f 17/33/57 18/34/58 22/26/59 21/25/60
f 18/34/61 20/35/62 23/27/63 22/26/64
f 20/35/65 19/36/66 24/28/67 23/27/68
f 19/36/69 17/33/70 21/25/71 24/28/72
